<?xml version="1.0" encoding="utf-8"?>
<!-- Svg Vector Icons : http://www.onlinewebfonts.com/icon -->
<!DOCTYPE svg PUBLIC "-//W3C//DTD SVG 1.1//EN" "http://www.w3.org/Graphics/SVG/1.1/DTD/svg11.dtd">
<svg version="1.1" xmlns="http://www.w3.org/2000/svg" xmlns:xlink="http://www.w3.org/1999/xlink" x="0px" y="0px" viewBox="0 0 1000 1000" enable-background="new 0 0 1000 1000" xml:space="preserve">
<metadata> Svg Vector Icons : http://www.onlinewebfonts.com/icon </metadata>
<g><path d="M45,10c0,93.3,0,186.7,0,280c93.3,0,186.7,0,280,0c0-93.3,0-186.7,0-280C231.7,10,138.3,10,45,10z M395,10c0,23.3,0,46.7,0,70c186.7,0,373.3,0,560,0c0-23.3,0-46.7,0-70C768.3,10,581.7,10,395,10z M85.1,50.1c66.6,0,133.3,0,199.9,0c0,66.6,0,133.3,0,199.9c-66.6,0-133.3,0-199.9,0C85.1,183.3,85.1,116.7,85.1,50.1z M255.7,79.3c-28.3,28.3-56.5,56.6-84.8,84.9c-18.9-18.9-37.7-37.7-56.6-56.6c-6.3,11.9-37.7,23.8-20.7,35.7c25.8,25.8,51.6,51.6,77.3,77.3c37.7-37.7,75.4-75.4,113.1-113.1C274.6,98.2,265.1,88.8,255.7,79.3z M395,150c0,23.3,0,46.7,0,70c93.3,0,186.7,0,280,0c0-23.3,0-46.7,0-70C581.7,150,488.3,150,395,150z M45,360c0,93.3,0,186.7,0,280c93.3,0,186.7,0,280,0c0-93.3,0-186.7,0-280C231.7,360,138.3,360,45,360z M395,360c0,23.3,0,46.7,0,70c186.7,0,373.3,0,560,0c0-23.3,0-46.7,0-70C768.3,360,581.7,360,395,360z M85.1,400.1c66.6,0,133.3,0,199.9,0c0,66.6,0,133.3,0,199.9c-66.6,0-133.3,0-199.9,0C85.1,533.3,85.1,466.7,85.1,400.1z M255.7,429.3c-28.3,28.3-56.5,56.6-84.8,84.9c-18.9-18.9-37.7-37.7-56.6-56.6c-6.3,11.9-37.7,23.8-20.7,35.7c25.8,25.8,51.6,51.6,77.3,77.3c37.7-37.7,75.4-75.4,113.1-113.1C274.6,448.2,265.1,438.8,255.7,429.3z M395,491.7c0,26.1,0,52.2,0,78.3c104.5,0,209.1,0,313.6,0c0-26.1,0-52.2,0-78.3C604.1,491.7,499.5,491.7,395,491.7z M45,710c0,93.3,0,186.7,0,280c93.3,0,186.7,0,280,0c0-93.3,0-186.7,0-280C231.7,710,138.3,710,45,710z M395,710c0,23.3,0,46.7,0,70c186.7,0,373.3,0,560,0c0-23.3,0-46.7,0-70C768.3,710,581.7,710,395,710z M85.1,750.1c66.6,0,133.3,0,199.9,0c0,66.6,0,133.3,0,199.9c-66.6,0-133.3,0-199.9,0C85.1,883.3,85.1,816.7,85.1,750.1z M395,850c0,23.3,0,46.7,0,70c93.3,0,186.7,0,280,0c0-23.3,0-46.7,0-70C581.7,850,488.3,850,395,850z"/></g>
</svg>