<?xml version="1.0" encoding="utf-8"?>
<!-- Svg Vector Icons : http://www.onlinewebfonts.com/icon -->
<!DOCTYPE svg PUBLIC "-//W3C//DTD SVG 1.1//EN" "http://www.w3.org/Graphics/SVG/1.1/DTD/svg11.dtd">
<svg version="1.1" xmlns="http://www.w3.org/2000/svg" xmlns:xlink="http://www.w3.org/1999/xlink" x="0px" y="0px" viewBox="0 0 1000 1000" enable-background="new 0 0 1000 1000" xml:space="preserve">
<metadata> Svg Vector Icons : http://www.onlinewebfonts.com/icon </metadata>
<g><g transform="translate(0.000000,511.000000) scale(0.100000,-0.100000)"><path d="M1399.6,4965.6c6-26.2,147.2-717.9,312.5-1538.6c167.4-820.7,306.5-1512.3,312.6-1536.5c10.1-44.4,16.1-46.4,369-50.4l358.9-6L2363.5-414.3c-211.7-1236.1-387.2-2264.5-389.2-2282.6c0-34.3,157.3-36.3,3024.7-36.3c2867.4,0,3024.7,2,3022.7,36.3c0,18.2-175.4,1046.5-389.2,2282.6l-387.1,2248.4l298.4,6c288.3,4,298.4,6.1,308.5,50.4c6,24.2,145.2,715.8,312.6,1536.5c165.4,820.7,306.5,1512.3,312.5,1538.6l10.1,44.4H7814h-675.5l-20.2-104.9c-32.2-157.3-203.7-1092.9-203.7-1109.1c0-10.1-294.4-16.1-655.4-16.1h-655.3v615v615h-655.4h-655.3v-615v-615H3648h-645.3l-10.1,46.4c-16.1,74.6-211.7,1147.4-211.7,1165.5c0,10.1-308.5,18.1-695.7,18.1h-695.7L1399.6,4965.6z"/><path d="M935.8-3386.5c-74.6-32.3-141.2-104.8-169.4-179.5c-14.1-36.3-22.2-276.3-22.2-641.2V-4790H4999h4256.7l-6,613c-6.1,584.8-8,617-48.4,669.5c-22.2,30.2-66.6,74.6-96.8,96.8l-54.4,42.3l-4026.9,4C1698.1-3360.3,986.2-3364.4,935.8-3386.5z"/></g></g>
</svg>